<svg width="1000" height="1000" viewBox="0 0 1000 1000" fill="none" xmlns="http://www.w3.org/2000/svg">
<path d="M0 0H993.939V993.939H0V0Z" fill="#15202B"/>
<path d="M491.109 616.697H587.234V628.692H569.834V721.776H556.15V671.433H525.572V680.555C525.572 686.806 522.193 690.016 516.956 690.016C508.679 690.016 497.36 677.514 497.36 668.054C497.36 662.986 500.063 659.438 507.665 659.438H556.15V628.692H491.109V616.697ZM556.266 617.88C546.974 587.809 543.596 582.741 532.108 582.741C527.378 582.741 522.141 583.923 518.086 585.444L514.37 573.449C519.1 571.591 525.519 570.408 531.263 570.408C551.029 570.408 557.111 580.038 568.767 617.88H556.266ZM665.737 628.692V721.776H652.053V687.82C646.478 691.874 638.538 694.577 629.754 694.577C609.65 694.577 598.162 683.427 598.162 660.959V628.692H584.816V616.697H683.307V628.692H665.737ZM652.053 628.692H611.846V661.465C611.846 675.994 618.097 682.582 629.416 682.582C638.032 682.582 646.309 677.852 652.053 671.77V628.692ZM680.833 628.692V616.697H797.738V628.692H780.337V721.776H766.653V661.296C765.978 661.296 765.302 661.296 764.626 661.296C753.138 661.296 745.198 668.392 741.651 689.171L728.136 685.117C729.149 677.852 731.008 671.77 733.711 666.702C729.994 663.324 725.264 661.296 719.182 661.296C708.539 661.296 702.119 668.223 702.119 678.866C702.119 691.705 711.073 701.841 731.852 713.667L723.912 724.141C701.782 711.133 688.436 696.773 688.436 677.514C688.436 658.762 700.599 649.133 717.831 649.133C727.46 649.133 734.893 652.512 740.637 657.749C746.719 652.174 754.659 649.471 764.626 649.471C765.302 649.471 765.978 649.471 766.653 649.471V628.692H680.833Z" fill="#1FB895"/>
<path d="M196.412 639.23H195.14L186.488 631.342L199.211 567.984H188.015L184.071 559.714L184.326 558.442H201.755C201.077 556.746 200.568 555.007 200.229 553.226C199.889 551.36 199.72 549.579 199.72 547.883C199.72 541.267 202.01 535.881 206.59 531.725C211.255 527.484 217.828 525.364 226.31 525.364C233.943 525.364 241.661 527.4 249.464 531.471C257.352 535.457 265.537 542.242 274.019 551.827L270.456 555.262C264.01 549.409 257.395 544.617 250.609 540.885C243.824 537.069 236.657 535.16 229.109 535.16C224.02 535.16 219.906 536.051 216.768 537.832C213.714 539.613 211.467 541.818 210.025 544.448C208.668 546.992 207.989 549.579 207.989 552.208C207.989 554.244 208.329 556.322 209.007 558.442H221.093L225.037 566.712L224.783 567.984H209.898L196.412 639.23ZM291.525 628.67H290.507L282.746 620.782C286.987 616.965 290.592 613.149 293.561 609.332C296.614 605.43 298.141 601.826 298.141 598.518C298.141 596.822 297.589 595.465 296.487 594.447C295.469 593.344 294.027 592.793 292.161 592.793C290.55 592.793 288.556 593.387 286.182 594.574C283.892 595.761 281.432 597.203 278.803 598.9C276.258 600.511 273.926 602.08 271.805 603.607L265.19 638.594H263.917L255.393 630.451L259.083 612.004C255.86 614.124 253.23 615.736 251.195 616.838C249.159 617.941 247.378 618.704 245.851 619.128C244.325 619.552 242.671 619.764 240.89 619.764C236.988 619.764 233.511 618.789 230.457 616.838C227.489 614.803 225.156 612.173 223.46 608.95C221.764 605.727 220.916 602.335 220.916 598.772C220.916 594.956 221.976 591.605 224.096 588.722C226.217 585.753 228.973 583.463 232.366 581.852C235.843 580.24 239.533 579.434 243.434 579.434C247.76 579.434 251.661 580.706 255.139 583.251C258.701 585.795 261.415 588.51 263.281 591.393L268.116 567.984H221.933L217.989 559.714L218.244 558.442H318.115L322.059 566.712L321.804 567.984H278.548L274.35 590.121C277.318 588.17 280.16 586.516 282.874 585.159C285.588 583.717 287.92 582.997 289.871 582.997C291.737 582.997 293.857 583.845 296.232 585.541C298.692 587.153 300.812 589.443 302.593 592.411C304.459 595.38 305.392 598.9 305.392 602.971C305.392 607.89 304.247 612.216 301.957 615.948C299.667 619.68 296.19 623.92 291.525 628.67ZM261.882 598.772L262.009 597.755C260.228 595.465 257.98 593.471 255.266 591.775C252.552 590.079 249.541 589.231 246.233 589.231C243.519 589.231 240.847 589.824 238.218 591.012C235.589 592.114 233.426 593.768 231.73 595.973C230.033 598.179 229.185 600.893 229.185 604.116C229.185 606.66 229.906 608.569 231.348 609.841C232.79 611.028 234.529 611.622 236.564 611.622C238.685 611.622 241.102 610.986 243.816 609.714C246.615 608.441 249.541 606.83 252.594 604.879C255.733 602.844 258.828 600.808 261.882 598.772ZM332.834 638.594H331.562C327.66 631.808 324.352 625.489 321.638 619.637C319.009 613.7 317.694 608.102 317.694 602.844C317.694 598.603 318.585 595.125 320.366 592.411C322.147 589.697 324.48 587.577 327.363 586.05C330.247 584.523 333.385 583.463 336.778 582.869C340.255 582.276 343.648 581.979 346.956 581.979H366.294L369.093 567.984H318.967L315.023 559.714L315.277 558.442H390.976L394.92 566.712L394.665 567.984H379.78L366.294 638.594H365.022L356.498 630.706L364.386 591.521H347.974C340.934 591.521 335.591 593.09 331.944 596.228C328.296 599.366 326.473 603.48 326.473 608.569C326.473 610.859 326.855 613.149 327.618 615.439C328.381 617.644 329.653 620.273 331.435 623.327C333.216 626.295 335.675 630.027 338.814 634.522L332.834 638.594ZM428.665 567.984H413.78L400.294 639.23H399.022L390.37 631.342L403.093 567.984H391.897L387.953 559.714L388.207 558.442H424.975L428.919 566.712L428.665 567.984ZM448.97 621.037C444.135 621.037 439.852 620.019 436.12 617.983C432.473 615.863 429.589 613.149 427.469 609.841C425.433 606.533 424.416 603.056 424.416 599.408C424.416 595.337 425.518 591.69 427.723 588.467C430.014 585.244 433.152 582.7 437.138 580.834C441.124 578.883 445.62 577.908 450.624 577.908C455.882 577.908 460.717 579.222 465.127 581.852C469.623 584.396 472.676 587.958 474.288 592.538H474.796L479.631 567.984H425.815L421.871 559.714L422.126 558.442H501.514L505.458 566.712L505.203 567.984H490.318L476.832 638.594H475.56L467.036 630.706L470.598 612.894H470.089C467.714 615.524 464.661 617.559 460.929 619.001C457.282 620.358 453.296 621.037 448.97 621.037ZM445.789 612.894C448.673 612.894 451.557 612.385 454.441 611.368L441.718 590.376C439.089 591.733 436.926 593.514 435.23 595.719C433.533 597.839 432.685 600.214 432.685 602.844C432.685 605.897 433.873 608.357 436.248 610.223C438.707 612.004 441.888 612.894 445.789 612.894ZM446.807 588.34L459.402 609.078C462.032 607.551 464.194 605.685 465.891 603.48C467.587 601.19 468.435 598.772 468.435 596.228C468.435 593.005 467.121 590.715 464.491 589.358C461.862 587.916 458.639 587.195 454.822 587.195C452.108 587.195 449.436 587.577 446.807 588.34Z" fill="#1FB895"/>
<path d="M672.977 284.658C671.139 283.558 668.852 282.831 666.339 282.645H666.289L625.766 282.952V252.354C625.766 250.415 624.703 248.672 623.003 247.405C621.328 246.146 619.016 245.363 616.453 245.363C616.416 245.363 616.366 245.363 616.328 245.363C612.628 245.14 608.329 245.009 603.979 245.009C560.217 245.009 520.506 257.927 491.332 278.935L491.382 278.898C462.258 257.927 422.547 245 378.785 245C374.435 245 370.123 245.13 365.861 245.382L366.423 245.354C363.848 245.41 361.511 246.174 359.761 247.395C358.061 248.663 356.999 250.406 356.999 252.344V282.943L316.475 282.635C316.437 282.635 316.387 282.635 316.337 282.635C313.775 282.635 311.462 283.409 309.787 284.658C308.075 285.925 307 287.678 307 289.626V513.312C307 517.171 311.2 520.293 316.375 520.293C318 520.293 319.525 519.986 320.862 519.445L320.812 519.464C344.611 508.941 373.261 502.715 403.872 502.715C434.409 502.715 463.008 508.913 487.532 519.706L486.77 519.389C487.495 519.706 488.332 519.958 489.22 520.107L489.282 520.116C489.632 520.181 490.032 520.237 490.457 520.265H490.482H490.532L491.394 520.303L491.557 520.265C493.182 520.256 494.719 519.93 496.044 519.371L495.994 519.389C519.756 508.913 548.355 502.724 578.892 502.724C609.503 502.724 638.165 508.941 662.727 519.781L661.964 519.464C663.239 520.004 664.764 520.321 666.389 520.321C668.164 520.321 669.827 519.939 671.227 519.287L671.189 519.305C673.939 518.066 675.752 515.847 675.752 513.322V289.635C675.752 287.696 674.689 285.935 672.964 284.667L672.977 284.658ZM375.773 259.484C377.848 259.4 380.273 259.353 382.723 259.353C421.997 259.353 457.333 271.898 481.932 291.918L482.02 291.993V495.52C454.108 479.079 418.397 469.144 379.585 469.144C378.248 469.144 376.91 469.153 375.573 469.181H375.773V259.484ZM325.774 502.063V296.69L357.024 296.923V476.031C357.024 479.88 361.211 483.012 366.373 483.021C367.473 483.003 368.773 482.993 370.073 482.993C392.997 482.993 415.022 485.864 435.546 491.158L434.146 490.841C425.034 489.629 414.534 488.94 403.822 488.94C375.46 488.94 348.624 493.777 324.699 502.408L325.787 502.053L325.774 502.063ZM500.769 291.984C525.456 271.898 560.805 259.344 600.079 259.344C602.516 259.344 604.954 259.391 607.354 259.484L607.016 259.474V469.162C605.879 469.144 604.541 469.134 603.204 469.134C564.392 469.134 528.681 479.07 500.419 495.706L500.769 495.511V291.984ZM657.015 502.063C634.128 493.889 607.291 489.042 578.967 488.884H578.892C568.205 488.884 557.755 489.602 547.605 490.972L548.668 490.85C567.78 485.873 589.804 482.993 612.741 482.993C614.028 482.993 615.328 483.003 616.603 483.021H616.416C621.578 483.012 625.766 479.89 625.766 476.031V296.923L657.015 296.69V502.063Z" fill="#1FB895"/>
</svg>
